<mxfile host="app.diagrams.net" modified="2024-06-16T03:24:48.787Z" agent="Mozilla/5.0 (Windows NT 10.0; Win64; x64) AppleWebKit/537.36 (KHTML, like Gecko) Chrome/121.0.0.0 Safari/537.36 Edg/121.0.0.0" etag="EFkbx0KXx8VQBwj1FRyO" version="24.2.5" type="github">
  <diagram name="第 1 页" id="TrftQSeXX0eI60zrtrdV">
    <mxGraphModel dx="1442" dy="582" grid="0" gridSize="10" guides="1" tooltips="1" connect="1" arrows="1" fold="1" page="0" pageScale="1" pageWidth="827" pageHeight="1169" math="0" shadow="0">
      <root>
        <mxCell id="0" />
        <mxCell id="1" parent="0" />
        <mxCell id="dDd9p2GZd-2jzfMsKxxr-2" value="&lt;div&gt;&lt;b&gt;&lt;font style=&quot;font-size: 16px;&quot; color=&quot;#ff0000&quot;&gt;index-digest&lt;/font&gt;&lt;/b&gt;(内容)&lt;br&gt;&lt;/div&gt;{&lt;div&gt;&quot;mediaType&quot;:&quot;...oci.image.&lt;b&gt;index&lt;/b&gt;....&quot;,&lt;/div&gt;&lt;div&gt;&quot;manifests&quot;:[&lt;/div&gt;&lt;div&gt;{&lt;/div&gt;&lt;div&gt;&lt;span style=&quot;white-space: pre;&quot;&gt;&#x9;&lt;/span&gt;&lt;span style=&quot;background-color: initial;&quot;&gt;&quot;mediaType&quot;:&quot;...oci.image.manifest....&quot;,&lt;/span&gt;&lt;br&gt;&lt;/div&gt;&lt;div&gt;&lt;span style=&quot;background-color: initial;&quot;&gt;&lt;span style=&quot;white-space: pre;&quot;&gt;&#x9;&lt;/span&gt;&quot;digest&quot;:&quot;&lt;b&gt;manifest1-digest&lt;/b&gt;&quot;&lt;/span&gt;&lt;span style=&quot;background-color: initial;&quot;&gt;,&lt;/span&gt;&lt;/div&gt;&lt;div&gt;&lt;span style=&quot;background-color: initial;&quot;&gt;&lt;span style=&quot;white-space: pre;&quot;&gt;&#x9;&lt;/span&gt;&quot;platform/architecture&quot;:&quot;amd64&quot;&lt;br&gt;&lt;/span&gt;&lt;/div&gt;&lt;div&gt;},&lt;/div&gt;&lt;div&gt;&lt;div&gt;{&lt;/div&gt;&lt;div&gt;&lt;span style=&quot;white-space: pre;&quot;&gt;&#x9;&lt;/span&gt;&lt;span style=&quot;background-color: initial;&quot;&gt;&quot;mediaType&quot;:&quot;...oci.image.&lt;/span&gt;manifest&lt;span style=&quot;background-color: initial;&quot;&gt;....&quot;,&lt;/span&gt;&lt;br&gt;&lt;/div&gt;&lt;div&gt;&lt;span style=&quot;background-color: initial;&quot;&gt;&lt;span style=&quot;white-space: pre;&quot;&gt;&#x9;&lt;/span&gt;&quot;digest&quot;:&quot;&lt;b&gt;manifest2-digest&lt;/b&gt;&quot;&lt;/span&gt;&lt;span style=&quot;background-color: initial;&quot;&gt;,&lt;/span&gt;&lt;/div&gt;&lt;div&gt;&lt;span style=&quot;background-color: initial;&quot;&gt;&lt;span style=&quot;white-space: pre;&quot;&gt;&#x9;&lt;/span&gt;&quot;platform/architecture&quot;:&quot;arm64&quot;&lt;br&gt;&lt;/span&gt;&lt;/div&gt;&lt;div&gt;}&lt;span style=&quot;background-color: initial;&quot;&gt;]&lt;/span&gt;&lt;/div&gt;&lt;/div&gt;&lt;div&gt;&lt;div&gt;}&lt;/div&gt;&lt;/div&gt;" style="rounded=1;whiteSpace=wrap;html=1;align=left;" vertex="1" parent="1">
          <mxGeometry x="-10" y="200" width="240" height="260" as="geometry" />
        </mxCell>
        <mxCell id="dDd9p2GZd-2jzfMsKxxr-3" value="&lt;div&gt;&lt;b style=&quot;background-color: initial;&quot;&gt;&lt;font color=&quot;#ff0000&quot; style=&quot;font-size: 16px;&quot;&gt;manifest1-digest&lt;/font&gt;&lt;/b&gt;(内容)&lt;br&gt;&lt;/div&gt;{&lt;div&gt;&quot;mediaType&quot;:&quot;...oci.image.&lt;b&gt;manifest&lt;/b&gt;....&quot;,&lt;/div&gt;&lt;div&gt;&lt;div&gt;&quot;config&quot;:[&lt;/div&gt;&lt;div&gt;{&lt;/div&gt;&lt;div&gt;&lt;span style=&quot;white-space: pre;&quot;&gt;&#x9;&lt;/span&gt;&lt;span style=&quot;background-color: initial;&quot;&gt;&quot;mediaType&quot;:&quot;...oci.&lt;/span&gt;layer&lt;span style=&quot;background-color: initial;&quot;&gt;.config....&quot;,&lt;/span&gt;&lt;br&gt;&lt;/div&gt;&lt;div&gt;&lt;span style=&quot;background-color: initial;&quot;&gt;&lt;span style=&quot;white-space: pre;&quot;&gt;&#x9;&lt;/span&gt;&quot;digest&quot;:&quot;&lt;b&gt;config-digest&lt;/b&gt;&quot;&lt;/span&gt;&lt;span style=&quot;background-color: initial;&quot;&gt;,&lt;/span&gt;&lt;/div&gt;&lt;div&gt;}],&lt;/div&gt;&lt;/div&gt;&lt;div&gt;&quot;layers&quot;:[&lt;/div&gt;&lt;div&gt;{&lt;/div&gt;&lt;div&gt;&lt;span style=&quot;white-space: pre;&quot;&gt;&#x9;&lt;/span&gt;&lt;span style=&quot;background-color: initial;&quot;&gt;&quot;mediaType&quot;:&quot;...oci.&lt;/span&gt;layer&lt;span style=&quot;background-color: initial;&quot;&gt;.manifest....&quot;,&lt;/span&gt;&lt;br&gt;&lt;/div&gt;&lt;div&gt;&lt;span style=&quot;background-color: initial;&quot;&gt;&lt;span style=&quot;white-space: pre;&quot;&gt;&#x9;&lt;/span&gt;&quot;digest&quot;:&quot;&lt;b&gt;layer1-digest&lt;/b&gt;&quot;&lt;/span&gt;&lt;span style=&quot;background-color: initial;&quot;&gt;,&lt;/span&gt;&lt;/div&gt;&lt;div&gt;},&lt;/div&gt;&lt;div&gt;&lt;div&gt;{&lt;/div&gt;&lt;div&gt;&lt;span style=&quot;white-space: pre;&quot;&gt;&#x9;&lt;/span&gt;&lt;span style=&quot;background-color: initial;&quot;&gt;&quot;mediaType&quot;:&quot;...oci.layer.&lt;/span&gt;manifest&lt;span style=&quot;background-color: initial;&quot;&gt;....&quot;,&lt;/span&gt;&lt;br&gt;&lt;/div&gt;&lt;div&gt;&lt;span style=&quot;background-color: initial;&quot;&gt;&lt;span style=&quot;white-space: pre;&quot;&gt;&#x9;&lt;/span&gt;&quot;digest&quot;:&quot;&lt;b&gt;layerN-digest&lt;/b&gt;&quot;&lt;/span&gt;&lt;span style=&quot;background-color: initial;&quot;&gt;,&lt;/span&gt;&lt;/div&gt;&lt;div&gt;}&lt;span style=&quot;background-color: initial;&quot;&gt;]&lt;/span&gt;&lt;/div&gt;&lt;/div&gt;&lt;div&gt;&lt;div&gt;}&lt;/div&gt;&lt;/div&gt;" style="rounded=1;whiteSpace=wrap;html=1;align=left;" vertex="1" parent="1">
          <mxGeometry x="290" y="190" width="256" height="300" as="geometry" />
        </mxCell>
        <mxCell id="dDd9p2GZd-2jzfMsKxxr-4" value="&lt;div&gt;&lt;b&gt;&lt;font style=&quot;font-size: 16px;&quot; color=&quot;#ff0000&quot;&gt;config-digest&lt;/font&gt;&lt;/b&gt;(内容)&lt;br&gt;&lt;/div&gt;{&lt;div&gt;....&lt;/div&gt;&lt;div&gt;&quot;rootfs/rootids&quot;:[&lt;/div&gt;&lt;div&gt;{&lt;/div&gt;&lt;div&gt;&lt;span style=&quot;white-space: pre;&quot;&gt;&#x9;&lt;/span&gt;&lt;span style=&quot;background-color: initial;&quot;&gt;&quot;&lt;b&gt;layer1-dffid&lt;/b&gt;&quot;,&lt;/span&gt;&lt;br&gt;&lt;/div&gt;&lt;div&gt;&lt;span style=&quot;background-color: initial;&quot;&gt;&lt;span style=&quot;white-space: pre;&quot;&gt;&#x9;&lt;/span&gt;&lt;/span&gt;&lt;span style=&quot;background-color: initial;&quot;&gt;&quot;&lt;b&gt;layer2-dffid&lt;/b&gt;&quot;,&lt;/span&gt;&lt;/div&gt;&lt;div&gt;&lt;span style=&quot;background-color: initial;&quot;&gt;&lt;span style=&quot;white-space: pre;&quot;&gt;&#x9;&lt;/span&gt;&quot;&lt;b&gt;layerN-dffid&lt;/b&gt;&quot;,&lt;/span&gt;&lt;/div&gt;&lt;div&gt;},&lt;/div&gt;&lt;div&gt;&lt;div&gt;....&lt;/div&gt;&lt;/div&gt;&lt;div&gt;&lt;div&gt;}&lt;/div&gt;&lt;/div&gt;" style="rounded=1;whiteSpace=wrap;html=1;align=left;" vertex="1" parent="1">
          <mxGeometry x="580" y="130" width="240" height="180" as="geometry" />
        </mxCell>
        <mxCell id="dDd9p2GZd-2jzfMsKxxr-5" value="&lt;div&gt;&lt;b&gt;&lt;font style=&quot;font-size: 16px;&quot; color=&quot;#ff0000&quot;&gt;layer1-digest&lt;/font&gt;&lt;/b&gt;(镜像层内容)&lt;br&gt;&lt;/div&gt;&lt;div&gt;....&lt;/div&gt;" style="rounded=1;whiteSpace=wrap;html=1;align=left;" vertex="1" parent="1">
          <mxGeometry x="580" y="330" width="240" height="60" as="geometry" />
        </mxCell>
        <mxCell id="dDd9p2GZd-2jzfMsKxxr-6" value="&lt;div&gt;&lt;b&gt;&lt;font style=&quot;font-size: 16px;&quot; color=&quot;#ff0000&quot;&gt;layer2-digest&lt;/font&gt;&lt;/b&gt;(镜像层内容)&lt;br&gt;&lt;/div&gt;&lt;div&gt;....&lt;/div&gt;" style="rounded=1;whiteSpace=wrap;html=1;align=left;" vertex="1" parent="1">
          <mxGeometry x="580" y="410" width="240" height="60" as="geometry" />
        </mxCell>
        <mxCell id="dDd9p2GZd-2jzfMsKxxr-7" value="&lt;div&gt;&lt;b&gt;&lt;font style=&quot;font-size: 16px;&quot; color=&quot;#ff0000&quot;&gt;layerN-digest&lt;/font&gt;&lt;/b&gt;(镜像层内容)&lt;br&gt;&lt;/div&gt;&lt;div&gt;....&lt;/div&gt;" style="rounded=1;whiteSpace=wrap;html=1;align=left;" vertex="1" parent="1">
          <mxGeometry x="580" y="490" width="240" height="60" as="geometry" />
        </mxCell>
        <mxCell id="dDd9p2GZd-2jzfMsKxxr-9" value="" style="endArrow=classic;html=1;rounded=0;entryX=-0.009;entryY=0.115;entryDx=0;entryDy=0;entryPerimeter=0;fillColor=#dae8fc;strokeColor=#6c8ebf;" edge="1" parent="1" target="dDd9p2GZd-2jzfMsKxxr-3">
          <mxGeometry width="50" height="50" relative="1" as="geometry">
            <mxPoint x="170" y="320" as="sourcePoint" />
            <mxPoint x="220" y="270" as="targetPoint" />
          </mxGeometry>
        </mxCell>
        <mxCell id="dDd9p2GZd-2jzfMsKxxr-10" value="" style="endArrow=classic;html=1;rounded=0;entryX=-0.014;entryY=0.161;entryDx=0;entryDy=0;entryPerimeter=0;fillColor=#dae8fc;strokeColor=#6c8ebf;" edge="1" parent="1" target="dDd9p2GZd-2jzfMsKxxr-4">
          <mxGeometry width="50" height="50" relative="1" as="geometry">
            <mxPoint x="450" y="310" as="sourcePoint" />
            <mxPoint x="500" y="260" as="targetPoint" />
          </mxGeometry>
        </mxCell>
        <mxCell id="dDd9p2GZd-2jzfMsKxxr-11" value="" style="endArrow=classic;html=1;rounded=0;entryX=0;entryY=0.25;entryDx=0;entryDy=0;fillColor=#dae8fc;strokeColor=#6c8ebf;" edge="1" parent="1" target="dDd9p2GZd-2jzfMsKxxr-5">
          <mxGeometry width="50" height="50" relative="1" as="geometry">
            <mxPoint x="440" y="381" as="sourcePoint" />
            <mxPoint x="567" y="230" as="targetPoint" />
          </mxGeometry>
        </mxCell>
        <mxCell id="dDd9p2GZd-2jzfMsKxxr-12" value="" style="endArrow=classic;html=1;rounded=0;entryX=0;entryY=0.25;entryDx=0;entryDy=0;fillColor=#dae8fc;strokeColor=#6c8ebf;" edge="1" parent="1" target="dDd9p2GZd-2jzfMsKxxr-7">
          <mxGeometry width="50" height="50" relative="1" as="geometry">
            <mxPoint x="450" y="436" as="sourcePoint" />
            <mxPoint x="590" y="400" as="targetPoint" />
          </mxGeometry>
        </mxCell>
        <mxCell id="dDd9p2GZd-2jzfMsKxxr-13" value="&lt;div&gt;&lt;b&gt;&lt;font style=&quot;font-size: 16px;&quot; color=&quot;#ff0000&quot;&gt;config-digest&lt;/font&gt;&lt;/b&gt;(内容)&lt;br&gt;&lt;/div&gt;{&lt;div&gt;....&lt;/div&gt;&lt;div&gt;&quot;rootfs/rootids&quot;:[&lt;/div&gt;&lt;div&gt;{&lt;/div&gt;&lt;div&gt;&lt;span style=&quot;white-space: pre;&quot;&gt;&#x9;&lt;/span&gt;&lt;span style=&quot;background-color: initial;&quot;&gt;&quot;&lt;b&gt;layer1-dffid&lt;/b&gt;&quot;,&lt;/span&gt;&lt;br&gt;&lt;/div&gt;&lt;div&gt;&lt;span style=&quot;background-color: initial;&quot;&gt;&lt;span style=&quot;white-space: pre;&quot;&gt;&#x9;&lt;/span&gt;&lt;/span&gt;&lt;span style=&quot;background-color: initial;&quot;&gt;&quot;&lt;b&gt;layer2-dffid&lt;/b&gt;&quot;,&lt;/span&gt;&lt;/div&gt;&lt;div&gt;&lt;span style=&quot;background-color: initial;&quot;&gt;&lt;span style=&quot;white-space: pre;&quot;&gt;&#x9;&lt;/span&gt;&quot;&lt;b&gt;layerN-dffid&lt;/b&gt;&quot;,&lt;/span&gt;&lt;/div&gt;&lt;div&gt;},&lt;/div&gt;&lt;div&gt;&lt;div&gt;....&lt;/div&gt;&lt;/div&gt;&lt;div&gt;&lt;div&gt;}&lt;/div&gt;&lt;/div&gt;" style="rounded=1;whiteSpace=wrap;html=1;align=left;" vertex="1" parent="1">
          <mxGeometry x="893" y="163" width="240" height="180" as="geometry" />
        </mxCell>
      </root>
    </mxGraphModel>
  </diagram>
</mxfile>
